<svg width="21" height="23" viewBox="0 0 21 23" fill="none" xmlns="http://www.w3.org/2000/svg">
<rect width="6.8678" height="1.71695" transform="matrix(0.616074 0.787688 0.766464 -0.642288 14.3135 17.4834)" fill="white"/>
<path fill-rule="evenodd" clip-rule="evenodd" d="M10.0967 18C5.53016 18 1.99668 14.3229 1.99668 10C1.99668 5.67715 5.53016 2 10.0967 2C14.6632 2 18.1967 5.67715 18.1967 10C18.1967 14.3229 14.6632 18 10.0967 18ZM10.0967 20C4.57383 20 0.0966801 15.5228 0.0966801 10C0.0966801 4.47715 4.57383 0 10.0967 0C15.6195 0 20.0967 4.47715 20.0967 10C20.0967 15.5228 15.6195 20 10.0967 20Z" fill="white"/>
</svg>
