<svg width="40" height="40" viewBox="0 0 40 40" fill="none" xmlns="http://www.w3.org/2000/svg">
<path fill-rule="evenodd" clip-rule="evenodd" d="M20.2144 40.0001C31.0899 39.8858 39.8858 31.0899 40.0001 20.2144C40.0008 20.1431 40.0001 20.0716 40.0001 20.0001C40.0001 19.9285 40.0008 19.857 40.0001 19.7857C39.8858 8.91024 31.0899 0.114339 20.2144 8.13802e-05C20.1431 -0.000651042 20.0716 8.13802e-05 20.0001 8.13802e-05C19.9285 8.13802e-05 19.857 -0.000651042 19.7857 8.13802e-05C8.91024 0.114339 0.114339 8.91024 8.13802e-05 19.7857C-0.000651042 19.857 8.13802e-05 19.9285 8.13802e-05 20.0001C8.13802e-05 20.0716 -0.000651042 20.1431 8.13802e-05 20.2144C0.114339 31.0899 8.91024 39.8858 19.7857 40.0001C19.857 40.0008 19.9285 40.0001 20.0001 40.0001C20.0716 40.0001 20.1431 40.0008 20.2144 40.0001ZM20.2144 40.0001H20.0001H19.7857C19.5145 31.1429 19.2857 27.1002 16.1429 23.8573C12.9 20.7144 8.85726 20.5001 8.13802e-05 20.2144V20.0001V19.7857C8.85726 19.5145 12.9 19.2857 16.1429 16.1429C19.2857 12.9 19.5001 8.85726 19.7857 8.13802e-05H20.0001H20.2144C20.4857 8.85726 20.7144 12.9 23.8573 16.1429C27.1002 19.2857 31.1429 19.5001 40.0001 19.7857V20.0001V20.2144C31.1429 20.4857 27.1002 20.7144 23.8573 23.8573C20.7144 27.1002 20.5001 31.1429 20.2144 40.0001Z" fill="white"/>
</svg>
